<svg width="64" height="64" viewBox="0 0 64 64" fill="none" xmlns="http://www.w3.org/2000/svg">
  <circle cx="32" cy="32" r="30" fill="#1DA1F2" opacity="0.1"/>
  <path d="M45 24C44 24.5 43 24.8 42 25C43 24.2 43.8 23.2 44 22C43 22.8 41.9 23.3 40.8 23.6C39.8 22.5 38.3 22 36.5 22C33.3 22 30.8 24.5 30.8 27.6C30.8 28.1 30.9 28.6 31 29C26.5 28.8 22.5 26.6 19.8 23.2C19.3 24 19 25 19 26.1C19 28.1 20 29.8 21.5 30.8C20.6 30.8 19.7 30.5 19 30.1V30.2C19 32.9 20.9 35.2 23.5 35.7C23 35.9 22.5 36 22 36C21.7 36 21.3 36 21 35.9C21.7 38.2 23.7 39.9 26.2 39.9C24.3 41.4 21.9 42.3 19.3 42.3C18.9 42.3 18.4 42.3 18 42.2C20.4 43.8 23.3 44.7 26.4 44.7C36.5 44.7 42.1 36.1 42.1 28.4V27.7C43.2 27 44.1 26 44.9 24.9C44 25.4 43 25.7 42 25.8C43.1 25.2 44 24.2 45 24Z" fill="#1DA1F2"/>
</svg>
